<svg width="12" height="10" viewBox="0 0 12 10" fill="none" xmlns="http://www.w3.org/2000/svg">
<path d="M5.83333 3.79167V3.79167V3.79167V3.79167V3.79167V3.79167V3.79167V3.79167V3.79167V3.79167V3.79167V3.79167M0 9.33333V8.16667H5.83333V9.33333H0V9.33333M1.75 7.58333C1.42917 7.58333 1.15451 7.4691 0.926042 7.24062C0.697569 7.01215 0.583333 6.7375 0.583333 6.41667V1.16667C0.583333 0.845833 0.697569 0.571181 0.926042 0.342708C1.15451 0.114236 1.42917 0 1.75 0H9.91667C10.2375 0 10.5122 0.114236 10.7406 0.342708C10.9691 0.571181 11.0833 0.845833 11.0833 1.16667H1.75V1.16667V1.16667V6.41667V6.41667V6.41667H5.83333V7.58333H1.75V7.58333M10.5 8.16667V3.5V3.5V3.5H8.16667V3.5V3.5V8.16667V8.16667V8.16667H10.5V8.16667V8.16667V8.16667M7.875 9.33333C7.63194 9.33333 7.42535 9.24826 7.25521 9.07812C7.08507 8.90799 7 8.70139 7 8.45833V3.20833C7 2.96528 7.08507 2.75868 7.25521 2.58854C7.42535 2.4184 7.63194 2.33333 7.875 2.33333H10.7917C11.0347 2.33333 11.2413 2.4184 11.4115 2.58854C11.5816 2.75868 11.6667 2.96528 11.6667 3.20833V8.45833C11.6667 8.70139 11.5816 8.90799 11.4115 9.07812C11.2413 9.24826 11.0347 9.33333 10.7917 9.33333H7.875V9.33333M9.33333 4.95833C9.45972 4.95833 9.56424 4.91458 9.64688 4.82708C9.72951 4.73958 9.77083 4.6375 9.77083 4.52083C9.77083 4.39444 9.72951 4.28993 9.64688 4.20729C9.56424 4.12465 9.45972 4.08333 9.33333 4.08333C9.21667 4.08333 9.11458 4.12465 9.02708 4.20729C8.93958 4.28993 8.89583 4.39444 8.89583 4.52083C8.89583 4.6375 8.93958 4.73958 9.02708 4.82708C9.11458 4.91458 9.21667 4.95833 9.33333 4.95833V4.95833M9.33333 5.83333V5.83333V5.83333V5.83333V5.83333V5.83333V5.83333V5.83333V5.83333V5.83333V5.83333V5.83333V5.83333V5.83333" fill="#415A77"/>
</svg>
