<svg width="21" height="21" viewBox="0 0 21 21" fill="none" xmlns="http://www.w3.org/2000/svg">
<path d="M6 16.5L12.95 18.4L18.9 16.55C18.8167 16.4 18.6958 16.2708 18.5375 16.1625C18.3792 16.0542 18.2 16 18 16H12.95C12.5 16 12.1417 15.9833 11.875 15.95C11.6083 15.9167 11.3333 15.85 11.05 15.75L8.725 14.975L9.275 13.025L11.3 13.7C11.5833 13.7833 11.9167 13.85 12.3 13.9C12.6833 13.95 13.25 13.9833 14 14V14V14V14C14 13.8167 13.9458 13.6417 13.8375 13.475C13.7292 13.3083 13.6 13.2 13.45 13.15L7.6 11V11V11H6V16.5V16.5M0 20V9H7.6C7.71667 9 7.83333 9.0125 7.95 9.0375C8.06667 9.0625 8.175 9.09167 8.275 9.125L14.15 11.3C14.7 11.5 15.1458 11.85 15.4875 12.35C15.8292 12.85 16 13.4 16 14H18C18.8333 14 19.5417 14.275 20.125 14.825C20.7083 15.375 21 16.1 21 17V18L13 20.5L6 18.55V18.55V20H0V20M2 18H4V11H2V18V18M14 9.65L12 8.9V8.9C11.9667 8.1 11.6625 7.41667 11.0875 6.85C10.5125 6.28333 9.81667 6 9 6C8.45 6 7.94583 6.1375 7.4875 6.4125C7.02917 6.6875 6.66667 7.05 6.4 7.5H4.25C4.53333 6.65 5.00417 5.91667 5.6625 5.3C6.32083 4.68333 7.1 4.28333 8 4.1V2H6.5V0H12C12.5667 0 13.1 0.0916667 13.6 0.275C14.1 0.458333 14.5583 0.708333 14.975 1.025L13.55 2.45C13.3167 2.31667 13.0708 2.20833 12.8125 2.125C12.5542 2.04167 12.2833 2 12 2H10V4.1C11.15 4.33333 12.1042 4.90417 12.8625 5.8125C13.6208 6.72083 14 7.78333 14 9V9.65V9.65M9 7.5V7.5V7.5V7.5V7.5V7.5V7.5V7.5V7.5M18 8C17.45 8 16.9792 7.80417 16.5875 7.4125C16.1958 7.02083 16 6.55 16 6C16 5.61667 16.1417 5.14167 16.425 4.575C16.7083 4.00833 17.2333 3.15 18 2C18.7667 3.15 19.2917 4.00833 19.575 4.575C19.8583 5.14167 20 5.61667 20 6C20 6.55 19.8042 7.02083 19.4125 7.4125C19.0208 7.80417 18.55 8 18 8V8" fill="#415A77"/>
</svg>
