<svg width="7" height="11" viewBox="0 0 7 11" fill="none" xmlns="http://www.w3.org/2000/svg">
<path d="M0.145833 10.5L0 9.21667L1.6625 4.6375C1.80833 4.77361 1.96632 4.88785 2.13646 4.98021C2.3066 5.07257 2.48889 5.14306 2.68333 5.19167L1.07917 9.59583L0.145833 10.5V10.5M6.27083 10.5L5.3375 9.59583L3.73333 5.19167C3.92778 5.14306 4.11007 5.07257 4.28021 4.98021C4.45035 4.88785 4.60833 4.77361 4.75417 4.6375L6.41667 9.21667L6.27083 10.5V10.5M3.20833 4.66667C2.72222 4.66667 2.30903 4.49653 1.96875 4.15625C1.62847 3.81597 1.45833 3.40278 1.45833 2.91667C1.45833 2.5375 1.56771 2.19965 1.78646 1.90313C2.00521 1.6066 2.28472 1.4 2.625 1.28333V0H3.79167V1.28333C4.13194 1.4 4.41146 1.6066 4.63021 1.90313C4.84896 2.19965 4.95833 2.5375 4.95833 2.91667C4.95833 3.40278 4.78819 3.81597 4.44792 4.15625C4.10764 4.49653 3.69444 4.66667 3.20833 4.66667V4.66667M3.20833 3.5C3.37361 3.5 3.51215 3.4441 3.62396 3.33229C3.73576 3.22049 3.79167 3.08194 3.79167 2.91667C3.79167 2.75139 3.73576 2.61285 3.62396 2.50104C3.51215 2.38924 3.37361 2.33333 3.20833 2.33333C3.04306 2.33333 2.90451 2.38924 2.79271 2.50104C2.6809 2.61285 2.625 2.75139 2.625 2.91667C2.625 3.08194 2.6809 3.22049 2.79271 3.33229C2.90451 3.4441 3.04306 3.5 3.20833 3.5V3.5" fill="#415A77"/>
</svg>
